<mxfile host="app.diagrams.net" modified="2021-12-27T15:43:56.715Z" agent="5.0 (Windows NT 10.0; Win64; x64) AppleWebKit/537.36 (KHTML, like Gecko) Chrome/96.0.4664.110 Safari/537.36 Edg/96.0.1054.62" etag="9IKH8buE6xZLWDeU49ys" version="16.1.0" type="github">
  <diagram id="6a731a19-8d31-9384-78a2-239565b7b9f0" name="Page-1">
    <mxGraphModel dx="1335" dy="757" grid="1" gridSize="13" guides="1" tooltips="1" connect="1" arrows="1" fold="1" page="1" pageScale="1" pageWidth="1169" pageHeight="827" background="none" math="0" shadow="0">
      <root>
        <mxCell id="0" />
        <mxCell id="1" parent="0" />
        <mxCell id="u7FrjLCv-Ces3TSmn1xm-72" style="edgeStyle=orthogonalEdgeStyle;rounded=0;orthogonalLoop=1;jettySize=auto;html=1;exitX=0.5;exitY=1;exitDx=0;exitDy=0;entryX=0.5;entryY=0;entryDx=0;entryDy=0;" edge="1" parent="1" source="u7FrjLCv-Ces3TSmn1xm-55" target="u7FrjLCv-Ces3TSmn1xm-56">
          <mxGeometry relative="1" as="geometry" />
        </mxCell>
        <mxCell id="u7FrjLCv-Ces3TSmn1xm-55" value="Pengumpulan data" style="rounded=1;whiteSpace=wrap;html=1;" vertex="1" parent="1">
          <mxGeometry x="524" y="133" width="120" height="60" as="geometry" />
        </mxCell>
        <mxCell id="u7FrjLCv-Ces3TSmn1xm-61" style="edgeStyle=orthogonalEdgeStyle;rounded=0;orthogonalLoop=1;jettySize=auto;html=1;exitX=0.5;exitY=1;exitDx=0;exitDy=0;entryX=0.5;entryY=0;entryDx=0;entryDy=0;" edge="1" parent="1" source="u7FrjLCv-Ces3TSmn1xm-56" target="u7FrjLCv-Ces3TSmn1xm-57">
          <mxGeometry relative="1" as="geometry" />
        </mxCell>
        <mxCell id="u7FrjLCv-Ces3TSmn1xm-56" value="Pra-Proses" style="rounded=1;whiteSpace=wrap;html=1;" vertex="1" parent="1">
          <mxGeometry x="524" y="233" width="120" height="60" as="geometry" />
        </mxCell>
        <mxCell id="u7FrjLCv-Ces3TSmn1xm-63" style="edgeStyle=orthogonalEdgeStyle;rounded=0;orthogonalLoop=1;jettySize=auto;html=1;exitX=0;exitY=1;exitDx=0;exitDy=0;entryX=0.75;entryY=0;entryDx=0;entryDy=0;" edge="1" parent="1" source="u7FrjLCv-Ces3TSmn1xm-57" target="u7FrjLCv-Ces3TSmn1xm-58">
          <mxGeometry relative="1" as="geometry" />
        </mxCell>
        <mxCell id="u7FrjLCv-Ces3TSmn1xm-64" style="edgeStyle=orthogonalEdgeStyle;rounded=0;orthogonalLoop=1;jettySize=auto;html=1;exitX=1;exitY=1;exitDx=0;exitDy=0;entryX=0.25;entryY=0;entryDx=0;entryDy=0;" edge="1" parent="1" source="u7FrjLCv-Ces3TSmn1xm-57" target="u7FrjLCv-Ces3TSmn1xm-59">
          <mxGeometry relative="1" as="geometry" />
        </mxCell>
        <mxCell id="u7FrjLCv-Ces3TSmn1xm-57" value="Pemisahan Data" style="rounded=1;whiteSpace=wrap;html=1;" vertex="1" parent="1">
          <mxGeometry x="524" y="333" width="120" height="60" as="geometry" />
        </mxCell>
        <mxCell id="u7FrjLCv-Ces3TSmn1xm-66" style="edgeStyle=orthogonalEdgeStyle;rounded=0;orthogonalLoop=1;jettySize=auto;html=1;exitX=0.5;exitY=1;exitDx=0;exitDy=0;entryX=0.5;entryY=0;entryDx=0;entryDy=0;" edge="1" parent="1" source="u7FrjLCv-Ces3TSmn1xm-58" target="u7FrjLCv-Ces3TSmn1xm-65">
          <mxGeometry relative="1" as="geometry" />
        </mxCell>
        <mxCell id="u7FrjLCv-Ces3TSmn1xm-58" value="Data Latih dan Validasi" style="rounded=1;whiteSpace=wrap;html=1;" vertex="1" parent="1">
          <mxGeometry x="434" y="433" width="120" height="60" as="geometry" />
        </mxCell>
        <mxCell id="u7FrjLCv-Ces3TSmn1xm-68" style="edgeStyle=orthogonalEdgeStyle;rounded=0;orthogonalLoop=1;jettySize=auto;html=1;exitX=0.5;exitY=1;exitDx=0;exitDy=0;entryX=0.5;entryY=0;entryDx=0;entryDy=0;" edge="1" parent="1" source="u7FrjLCv-Ces3TSmn1xm-59" target="u7FrjLCv-Ces3TSmn1xm-67">
          <mxGeometry relative="1" as="geometry" />
        </mxCell>
        <mxCell id="u7FrjLCv-Ces3TSmn1xm-59" value="Data Uji" style="rounded=1;whiteSpace=wrap;html=1;" vertex="1" parent="1">
          <mxGeometry x="614" y="433" width="120" height="60" as="geometry" />
        </mxCell>
        <mxCell id="u7FrjLCv-Ces3TSmn1xm-69" style="edgeStyle=orthogonalEdgeStyle;rounded=0;orthogonalLoop=1;jettySize=auto;html=1;exitX=1;exitY=0.5;exitDx=0;exitDy=0;entryX=0;entryY=0.5;entryDx=0;entryDy=0;" edge="1" parent="1" source="u7FrjLCv-Ces3TSmn1xm-65" target="u7FrjLCv-Ces3TSmn1xm-67">
          <mxGeometry relative="1" as="geometry" />
        </mxCell>
        <mxCell id="u7FrjLCv-Ces3TSmn1xm-65" value="Data Augmentasi" style="rounded=1;whiteSpace=wrap;html=1;" vertex="1" parent="1">
          <mxGeometry x="434" y="533" width="120" height="60" as="geometry" />
        </mxCell>
        <mxCell id="u7FrjLCv-Ces3TSmn1xm-71" style="edgeStyle=orthogonalEdgeStyle;rounded=0;orthogonalLoop=1;jettySize=auto;html=1;exitX=0.5;exitY=1;exitDx=0;exitDy=0;entryX=0.5;entryY=0;entryDx=0;entryDy=0;" edge="1" parent="1" source="u7FrjLCv-Ces3TSmn1xm-67" target="u7FrjLCv-Ces3TSmn1xm-70">
          <mxGeometry relative="1" as="geometry" />
        </mxCell>
        <mxCell id="u7FrjLCv-Ces3TSmn1xm-67" value="Model &lt;i&gt;Convolutional Neural Network&lt;/i&gt; (CNN)" style="rounded=1;whiteSpace=wrap;html=1;" vertex="1" parent="1">
          <mxGeometry x="614" y="533" width="120" height="60" as="geometry" />
        </mxCell>
        <mxCell id="u7FrjLCv-Ces3TSmn1xm-70" value="Evaluasi" style="rounded=1;whiteSpace=wrap;html=1;" vertex="1" parent="1">
          <mxGeometry x="614" y="633" width="120" height="60" as="geometry" />
        </mxCell>
      </root>
    </mxGraphModel>
  </diagram>
</mxfile>
